<svg xmlns="http://www.w3.org/2000/svg" viewBox="0 0 180 252" width="180" height="252">
<rect x="3" y="3" width="174" height="246" rx="16" fill="#fbf7ec" stroke="#c9a227" stroke-width="3"/>
<g transform="translate(27 47)"><text x="0" y="0" font-family="Georgia, 'Times New Roman', serif" font-weight="700" font-size="38" text-anchor="middle" fill="#c2352b">J</text><g transform="translate(0.00 20.00) scale(0.50000)" fill="#c2352b"><path d="M0 -21 L15 0 L0 21 L-15 0 Z"/></g></g><g transform="translate(153 205) rotate(180)"><text x="0" y="0" font-family="Georgia, 'Times New Roman', serif" font-weight="700" font-size="38" text-anchor="middle" fill="#c2352b">J</text><g transform="translate(0.00 20.00) scale(0.50000)" fill="#c2352b"><path d="M0 -21 L15 0 L0 21 L-15 0 Z"/></g></g>
<g transform="translate(90 120)" fill="#c9a227"><path d="M-27 -22 L27 -22 L27 2 C27 18 13 28 0 33 C-13 28 -27 18 -27 2 Z"/><path d="M-16 -4 L0 -15 L16 -4 L16 8 L0 -3 L-16 8 Z" fill="#fbf7ec"/></g>
<g transform="translate(90.00 190.00) scale(0.80952)" fill="#c2352b"><path d="M0 -21 L15 0 L0 21 L-15 0 Z"/></g>
</svg>
