<svg xmlns="http://www.w3.org/2000/svg" viewBox="0 0 180 252" width="180" height="252">
<rect x="3" y="3" width="174" height="246" rx="16" fill="#fbf7ec" stroke="#c9a227" stroke-width="3"/>
<g transform="translate(27 47)"><text x="0" y="0" font-family="Georgia, 'Times New Roman', serif" font-weight="700" font-size="38" text-anchor="middle" fill="#c2352b">Q</text><g transform="translate(0.00 20.00) scale(0.50000)" fill="#c2352b"><path d="M0 -21 L15 0 L0 21 L-15 0 Z"/></g></g><g transform="translate(153 205) rotate(180)"><text x="0" y="0" font-family="Georgia, 'Times New Roman', serif" font-weight="700" font-size="38" text-anchor="middle" fill="#c2352b">Q</text><g transform="translate(0.00 20.00) scale(0.50000)" fill="#c2352b"><path d="M0 -21 L15 0 L0 21 L-15 0 Z"/></g></g>
<g transform="translate(90 122)" fill="#c9a227"><path d="M-30 12 L-30 -6 C-22 -6 -18 -12 -17 -18 C-12 -10 -6 -6 0 -6 C6 -6 12 -10 17 -18 C18 -12 22 -6 30 -6 L30 12 Z"/><rect x="-30" y="16" width="60" height="10" rx="3"/><circle cx="0" cy="-14" r="4.4"/></g>
<g transform="translate(90.00 190.00) scale(0.80952)" fill="#c2352b"><path d="M0 -21 L15 0 L0 21 L-15 0 Z"/></g>
</svg>
