<svg xmlns="http://www.w3.org/2000/svg" viewBox="0 0 180 252" width="180" height="252">
<rect x="2.5" y="2.5" width="175" height="247" rx="17" fill="#e9f6ee" stroke="#1f8a4c" stroke-width="5"/><rect x="10" y="10" width="160" height="232" rx="11" fill="#fdfaf3" stroke="#c9a227" stroke-width="1.4"/>
<g transform="translate(30 50)"><text x="0" y="0" font-family="Georgia, 'Times New Roman', serif" font-weight="700" font-size="36" text-anchor="middle" fill="#1f8a4c">2</text><g transform="translate(0.00 19.00) scale(0.47619)" fill="#1f8a4c"><circle cx="0" cy="-11" r="8.6"/><circle cx="-10.6" cy="3" r="8.6"/><circle cx="10.6" cy="3" r="8.6"/><path d="M-7 21 C-3.2 18 -1.6 13 -1 6 L1 6 C1.6 13 3.2 18 7 21 Z"/></g></g><g transform="translate(150 202) rotate(180)"><text x="0" y="0" font-family="Georgia, 'Times New Roman', serif" font-weight="700" font-size="36" text-anchor="middle" fill="#1f8a4c">2</text><g transform="translate(0.00 19.00) scale(0.47619)" fill="#1f8a4c"><circle cx="0" cy="-11" r="8.6"/><circle cx="-10.6" cy="3" r="8.6"/><circle cx="10.6" cy="3" r="8.6"/><path d="M-7 21 C-3.2 18 -1.6 13 -1 6 L1 6 C1.6 13 3.2 18 7 21 Z"/></g></g>
<g transform="translate(90.00 74.00) scale(0.59524)" fill="#1f8a4c"><circle cx="0" cy="-11" r="8.6"/><circle cx="-10.6" cy="3" r="8.6"/><circle cx="10.6" cy="3" r="8.6"/><path d="M-7 21 C-3.2 18 -1.6 13 -1 6 L1 6 C1.6 13 3.2 18 7 21 Z"/></g><g transform="translate(90.00 206.00) scale(0.59524)" fill="#1f8a4c"><circle cx="0" cy="-11" r="8.6"/><circle cx="-10.6" cy="3" r="8.6"/><circle cx="10.6" cy="3" r="8.6"/><path d="M-7 21 C-3.2 18 -1.6 13 -1 6 L1 6 C1.6 13 3.2 18 7 21 Z"/></g>
</svg>
